<svg xmlns="http://www.w3.org/2000/svg" xmlns:xlink="http://www.w3.org/1999/xlink" width="175" viewBox="0 0 131.25 41.25" height="55" preserveAspectRatio="xMidYMid meet" version="1.0"><defs><g/><clipPath id="6474e482dd"><path d="M 36 13 L 53 13 L 53 33.941406 L 36 33.941406 Z M 36 13 " clip-rule="nonzero"/></clipPath><clipPath id="badbdbc6a9"><path d="M 53 13 L 69 13 L 69 33.941406 L 53 33.941406 Z M 53 13 " clip-rule="nonzero"/></clipPath><clipPath id="56b03b27f7"><path d="M 107 13 L 121.96875 13 L 121.96875 27 L 107 27 Z M 107 13 " clip-rule="nonzero"/></clipPath><clipPath id="daf43e5281"><rect x="0" width="122" y="0" height="34"/></clipPath></defs><g transform="matrix(1, 0, 0, 1, 4, 0.000000000000005234)"><g clip-path="url(#daf43e5281)"><g fill="#ffffff" fill-opacity="1"><g transform="translate(0.511293, 26.11421)"><g><path d="M 6.09375 -7.046875 L 6.09375 0 L 1.734375 0 L 1.734375 -19.734375 L 9.140625 -19.734375 C 10.203125 -19.734375 11.191406 -19.46875 12.109375 -18.9375 C 13.035156 -18.40625 13.78125 -17.664062 14.34375 -16.71875 C 14.90625 -15.769531 15.1875 -14.664062 15.1875 -13.40625 C 15.1875 -12.070312 14.90625 -10.929688 14.34375 -9.984375 C 13.78125 -9.035156 13.035156 -8.304688 12.109375 -7.796875 C 11.191406 -7.296875 10.203125 -7.046875 9.140625 -7.046875 Z M 8.421875 -16.3125 L 6.09375 -16.3125 L 6.09375 -10.484375 L 8.421875 -10.484375 C 9.054688 -10.484375 9.648438 -10.734375 10.203125 -11.234375 C 10.753906 -11.734375 11.03125 -12.457031 11.03125 -13.40625 C 11.03125 -14.320312 10.753906 -15.035156 10.203125 -15.546875 C 9.648438 -16.054688 9.054688 -16.3125 8.421875 -16.3125 Z M 8.421875 -16.3125 "/></g></g></g><g fill="#ffffff" fill-opacity="1"><g transform="translate(14.701117, 26.11421)"><g><path d="M 6.09375 0 L 1.734375 0 L 1.734375 -21.78125 L 6.09375 -21.78125 Z M 6.09375 0 "/></g></g></g><g fill="#ffffff" fill-opacity="1"><g transform="translate(21.113832, 26.11421)"><g><path d="M 1.453125 -5.515625 L 1.453125 -12.796875 L 5.8125 -12.796875 L 5.8125 -5.515625 C 5.8125 -4.773438 5.960938 -4.203125 6.265625 -3.796875 C 6.578125 -3.390625 7.070312 -3.1875 7.75 -3.1875 C 8.425781 -3.1875 9 -3.503906 9.46875 -4.140625 C 9.945312 -4.785156 10.1875 -5.535156 10.1875 -6.390625 L 10.1875 -12.796875 L 14.546875 -12.796875 L 14.546875 0 L 10.1875 0 L 10.1875 -1.5625 C 9.757812 -1.019531 9.210938 -0.570312 8.546875 -0.21875 C 7.878906 0.121094 7.117188 0.296875 6.265625 0.296875 C 4.566406 0.296875 3.335938 -0.238281 2.578125 -1.3125 C 1.828125 -2.394531 1.453125 -3.796875 1.453125 -5.515625 Z M 1.453125 -5.515625 "/></g></g></g><g clip-path="url(#6474e482dd)"><g fill="#ffffff" fill-opacity="1"><g transform="translate(35.971099, 26.11421)"><g><path d="M 8.703125 -3.1875 C 9.285156 -3.1875 9.800781 -3.335938 10.25 -3.640625 C 10.707031 -3.941406 11.070312 -4.335938 11.34375 -4.828125 C 11.613281 -5.328125 11.75 -5.859375 11.75 -6.421875 C 11.75 -6.984375 11.613281 -7.503906 11.34375 -7.984375 C 11.070312 -8.460938 10.707031 -8.851562 10.25 -9.15625 C 9.800781 -9.457031 9.285156 -9.609375 8.703125 -9.609375 C 8.128906 -9.609375 7.613281 -9.457031 7.15625 -9.15625 C 6.695312 -8.851562 6.332031 -8.460938 6.0625 -7.984375 C 5.789062 -7.503906 5.65625 -6.984375 5.65625 -6.421875 C 5.65625 -5.859375 5.789062 -5.328125 6.0625 -4.828125 C 6.332031 -4.335938 6.695312 -3.941406 7.15625 -3.640625 C 7.613281 -3.335938 8.128906 -3.1875 8.703125 -3.1875 Z M 11.75 -11.234375 L 11.75 -12.796875 L 16.109375 -12.796875 L 16.109375 -0.03125 C 16.109375 1.363281 15.773438 2.613281 15.109375 3.71875 C 14.441406 4.820312 13.546875 5.6875 12.421875 6.3125 C 11.296875 6.945312 10.054688 7.265625 8.703125 7.265625 C 7.835938 7.265625 6.972656 7.148438 6.109375 6.921875 C 5.242188 6.703125 4.445312 6.363281 3.71875 5.90625 C 3 5.445312 2.414062 4.859375 1.96875 4.140625 C 1.53125 3.429688 1.28125 2.59375 1.21875 1.625 L 5.578125 1.625 C 5.734375 2.382812 6.082031 2.972656 6.625 3.390625 C 7.164062 3.816406 7.785156 4.03125 8.484375 4.03125 C 9.117188 4.03125 9.679688 3.859375 10.171875 3.515625 C 10.671875 3.179688 11.054688 2.738281 11.328125 2.1875 C 11.609375 1.632812 11.75 1.0625 11.75 0.46875 L 11.75 -1.5625 C 11.332031 -0.90625 10.703125 -0.429688 9.859375 -0.140625 C 9.015625 0.148438 8.1875 0.296875 7.375 0.296875 C 6.175781 0.296875 5.09375 -0.015625 4.125 -0.640625 C 3.15625 -1.273438 2.394531 -2.097656 1.84375 -3.109375 C 1.289062 -4.128906 1.015625 -5.234375 1.015625 -6.421875 C 1.015625 -7.597656 1.289062 -8.691406 1.84375 -9.703125 C 2.394531 -10.722656 3.15625 -11.539062 4.125 -12.15625 C 5.09375 -12.78125 6.175781 -13.09375 7.375 -13.09375 C 8.1875 -13.09375 8.960938 -12.96875 9.703125 -12.71875 C 10.453125 -12.46875 11.132812 -11.972656 11.75 -11.234375 Z M 11.75 -11.234375 "/></g></g></g></g><g clip-path="url(#badbdbc6a9)"><g fill="#ffffff" fill-opacity="1"><g transform="translate(52.395386, 26.11421)"><g><path d="M 8.703125 -3.1875 C 9.285156 -3.1875 9.800781 -3.335938 10.25 -3.640625 C 10.707031 -3.941406 11.070312 -4.335938 11.34375 -4.828125 C 11.613281 -5.328125 11.75 -5.859375 11.75 -6.421875 C 11.75 -6.984375 11.613281 -7.503906 11.34375 -7.984375 C 11.070312 -8.460938 10.707031 -8.851562 10.25 -9.15625 C 9.800781 -9.457031 9.285156 -9.609375 8.703125 -9.609375 C 8.128906 -9.609375 7.613281 -9.457031 7.15625 -9.15625 C 6.695312 -8.851562 6.332031 -8.460938 6.0625 -7.984375 C 5.789062 -7.503906 5.65625 -6.984375 5.65625 -6.421875 C 5.65625 -5.859375 5.789062 -5.328125 6.0625 -4.828125 C 6.332031 -4.335938 6.695312 -3.941406 7.15625 -3.640625 C 7.613281 -3.335938 8.128906 -3.1875 8.703125 -3.1875 Z M 11.75 -11.234375 L 11.75 -12.796875 L 16.109375 -12.796875 L 16.109375 -0.03125 C 16.109375 1.363281 15.773438 2.613281 15.109375 3.71875 C 14.441406 4.820312 13.546875 5.6875 12.421875 6.3125 C 11.296875 6.945312 10.054688 7.265625 8.703125 7.265625 C 7.835938 7.265625 6.972656 7.148438 6.109375 6.921875 C 5.242188 6.703125 4.445312 6.363281 3.71875 5.90625 C 3 5.445312 2.414062 4.859375 1.96875 4.140625 C 1.53125 3.429688 1.28125 2.59375 1.21875 1.625 L 5.578125 1.625 C 5.734375 2.382812 6.082031 2.972656 6.625 3.390625 C 7.164062 3.816406 7.785156 4.03125 8.484375 4.03125 C 9.117188 4.03125 9.679688 3.859375 10.171875 3.515625 C 10.671875 3.179688 11.054688 2.738281 11.328125 2.1875 C 11.609375 1.632812 11.75 1.0625 11.75 0.46875 L 11.75 -1.5625 C 11.332031 -0.90625 10.703125 -0.429688 9.859375 -0.140625 C 9.015625 0.148438 8.1875 0.296875 7.375 0.296875 C 6.175781 0.296875 5.09375 -0.015625 4.125 -0.640625 C 3.15625 -1.273438 2.394531 -2.097656 1.84375 -3.109375 C 1.289062 -4.128906 1.015625 -5.234375 1.015625 -6.421875 C 1.015625 -7.597656 1.289062 -8.691406 1.84375 -9.703125 C 2.394531 -10.722656 3.15625 -11.539062 4.125 -12.15625 C 5.09375 -12.78125 6.175781 -13.09375 7.375 -13.09375 C 8.1875 -13.09375 8.960938 -12.96875 9.703125 -12.71875 C 10.453125 -12.46875 11.132812 -11.972656 11.75 -11.234375 Z M 11.75 -11.234375 "/></g></g></g></g><g fill="#ffffff" fill-opacity="1"><g transform="translate(68.819674, 26.11421)"><g><path d="M 5.6875 -7.921875 L 11.40625 -7.921875 C 11.40625 -7.921875 11.378906 -8.039062 11.328125 -8.28125 C 11.285156 -8.53125 11.171875 -8.804688 10.984375 -9.109375 C 10.804688 -9.421875 10.519531 -9.695312 10.125 -9.9375 C 9.738281 -10.1875 9.21875 -10.3125 8.5625 -10.3125 C 7.882812 -10.3125 7.351562 -10.1875 6.96875 -9.9375 C 6.582031 -9.695312 6.296875 -9.421875 6.109375 -9.109375 C 5.921875 -8.804688 5.800781 -8.53125 5.75 -8.28125 C 5.707031 -8.039062 5.6875 -7.921875 5.6875 -7.921875 Z M 15.59375 -6.671875 C 15.59375 -6.535156 15.585938 -6.398438 15.578125 -6.265625 C 15.566406 -6.128906 15.5625 -5.992188 15.5625 -5.859375 L 5.625 -5.859375 C 5.625 -5.378906 5.734375 -4.898438 5.953125 -4.421875 C 6.179688 -3.953125 6.503906 -3.566406 6.921875 -3.265625 C 7.335938 -2.960938 7.828125 -2.8125 8.390625 -2.8125 C 9.160156 -2.8125 9.769531 -3.019531 10.21875 -3.4375 C 10.664062 -3.851562 10.898438 -4.296875 10.921875 -4.765625 L 15.359375 -4.765625 C 14.992188 -3.078125 14.179688 -1.8125 12.921875 -0.96875 C 11.660156 -0.125 10.179688 0.296875 8.484375 0.296875 C 7.003906 0.296875 5.703125 0.0195312 4.578125 -0.53125 C 3.460938 -1.082031 2.585938 -1.859375 1.953125 -2.859375 C 1.328125 -3.859375 1.015625 -5.035156 1.015625 -6.390625 C 1.015625 -7.722656 1.335938 -8.890625 1.984375 -9.890625 C 2.640625 -10.898438 3.523438 -11.6875 4.640625 -12.25 C 5.765625 -12.8125 7.046875 -13.09375 8.484375 -13.09375 C 9.773438 -13.09375 10.957031 -12.835938 12.03125 -12.328125 C 13.101562 -11.828125 13.960938 -11.101562 14.609375 -10.15625 C 15.265625 -9.207031 15.59375 -8.046875 15.59375 -6.671875 Z M 15.59375 -6.671875 "/></g></g></g><g fill="#ffffff" fill-opacity="1"><g transform="translate(83.996143, 26.11421)"><g><path d="M 11.75 -6.390625 C 11.75 -6.953125 11.613281 -7.472656 11.34375 -7.953125 C 11.070312 -8.441406 10.707031 -8.832031 10.25 -9.125 C 9.800781 -9.425781 9.285156 -9.578125 8.703125 -9.578125 C 8.128906 -9.578125 7.613281 -9.425781 7.15625 -9.125 C 6.695312 -8.832031 6.332031 -8.441406 6.0625 -7.953125 C 5.789062 -7.472656 5.65625 -6.953125 5.65625 -6.390625 C 5.65625 -5.828125 5.789062 -5.300781 6.0625 -4.8125 C 6.332031 -4.332031 6.695312 -3.941406 7.15625 -3.640625 C 7.613281 -3.335938 8.128906 -3.1875 8.703125 -3.1875 C 9.285156 -3.1875 9.800781 -3.335938 10.25 -3.640625 C 10.707031 -3.941406 11.070312 -4.332031 11.34375 -4.8125 C 11.613281 -5.300781 11.75 -5.828125 11.75 -6.390625 Z M 16.109375 -21.78125 L 16.109375 0 L 11.75 0 L 11.75 -1.53125 C 11.332031 -0.875 10.703125 -0.40625 9.859375 -0.125 C 9.015625 0.152344 8.1875 0.296875 7.375 0.296875 C 6.175781 0.296875 5.09375 -0.0078125 4.125 -0.625 C 3.15625 -1.25 2.394531 -2.066406 1.84375 -3.078125 C 1.289062 -4.097656 1.015625 -5.203125 1.015625 -6.390625 C 1.015625 -7.566406 1.289062 -8.660156 1.84375 -9.671875 C 2.394531 -10.691406 3.15625 -11.515625 4.125 -12.140625 C 5.09375 -12.773438 6.175781 -13.09375 7.375 -13.09375 C 8.1875 -13.09375 8.976562 -12.957031 9.75 -12.6875 C 10.53125 -12.414062 11.195312 -11.929688 11.75 -11.234375 L 11.75 -21.78125 Z M 16.109375 -21.78125 "/></g></g></g><g fill="#ffffff" fill-opacity="1"><g transform="translate(100.42043, 26.11421)"><g/></g></g><g clip-path="url(#56b03b27f7)"><g fill="#ffffff" fill-opacity="1"><g transform="translate(106.252758, 26.11421)"><g><path d="M 14.828125 -7.265625 L 14.828125 0 L 10.484375 0 L 10.484375 -7.265625 C 10.484375 -8.015625 10.328125 -8.585938 10.015625 -8.984375 C 9.703125 -9.378906 9.207031 -9.578125 8.53125 -9.578125 C 7.851562 -9.578125 7.273438 -9.257812 6.796875 -8.625 C 6.328125 -8 6.09375 -7.253906 6.09375 -6.390625 L 6.09375 0 L 1.734375 0 L 1.734375 -12.796875 L 6.09375 -12.796875 L 6.09375 -11.234375 C 6.539062 -11.796875 7.097656 -12.242188 7.765625 -12.578125 C 8.429688 -12.921875 9.179688 -13.09375 10.015625 -13.09375 C 11.734375 -13.09375 12.960938 -12.554688 13.703125 -11.484375 C 14.453125 -10.410156 14.828125 -9.003906 14.828125 -7.265625 Z M 14.828125 -7.265625 "/></g></g></g></g></g></g><path fill="#ffffff" d="M 107.277344 2.902344 C 107.203125 3.023438 106.960938 3.46875 106.75 3.894531 L 106.351562 4.660156 L 106.640625 5.230469 C 106.875 5.683594 106.933594 5.878906 106.949219 6.210938 L 106.96875 6.621094 L 108.476562 6.621094 L 108.515625 6.105469 C 108.542969 5.703125 108.597656 5.511719 108.769531 5.203125 C 108.894531 4.984375 108.988281 4.738281 108.988281 4.652344 C 108.988281 4.566406 108.769531 4.085938 108.503906 3.585938 L 108.023438 2.679688 L 107.714844 2.679688 C 107.449219 2.679688 107.394531 2.707031 107.277344 2.902344 Z M 107.277344 2.902344 " fill-opacity="1" fill-rule="nonzero"/><path fill="#ffffff" d="M 106.933594 12.167969 L 106.933594 16.800781 L 107.707031 16.777344 L 108.476562 16.757812 L 108.476562 7.578125 L 107.707031 7.558594 L 106.933594 7.539062 Z M 106.933594 12.167969 " fill-opacity="1" fill-rule="nonzero"/><path fill="#ffffff" d="M 105.933594 17.839844 C 105.914062 17.894531 105.914062 18.222656 105.921875 18.582031 L 105.941406 19.222656 L 107.707031 19.246094 L 109.46875 19.257812 L 109.46875 17.75 L 107.722656 17.75 C 106.332031 17.75 105.960938 17.773438 105.933594 17.839844 Z M 105.933594 17.839844 " fill-opacity="1" fill-rule="nonzero"/><path fill="#ffffff" d="M 105.957031 20.195312 C 105.929688 20.21875 105.90625 20.558594 105.90625 20.949219 L 105.90625 21.65625 L 109.46875 21.65625 L 109.46875 20.148438 L 107.734375 20.148438 C 106.777344 20.148438 105.976562 20.167969 105.957031 20.195312 Z M 105.957031 20.195312 " fill-opacity="1" fill-rule="nonzero"/><path fill="#ffffff" d="M 105.921875 25.199219 C 105.957031 28.144531 105.96875 28.253906 106.550781 29.484375 L 106.859375 30.148438 L 108.558594 30.148438 L 108.878906 29.417969 C 109.441406 28.144531 109.46875 27.953125 109.46875 25.09375 L 109.46875 22.613281 L 105.898438 22.613281 Z M 105.921875 25.199219 " fill-opacity="1" fill-rule="nonzero"/><path fill="#ffffff" d="M 119.710938 27.609375 C 118.359375 28 117.339844 28.9375 116.855469 30.21875 L 116.632812 30.800781 L 116.601562 33.027344 L 116.558594 35.253906 L 116.339844 35.710938 C 116.222656 35.964844 115.996094 36.308594 115.832031 36.480469 C 115.484375 36.863281 114.738281 37.253906 114.160156 37.34375 C 113.53125 37.445312 111.230469 37.425781 110.695312 37.316406 C 109.859375 37.136719 109.203125 36.699219 108.796875 36.054688 C 108.40625 35.445312 108.375 35.183594 108.375 33.046875 L 108.375 31.109375 L 107.070312 31.109375 L 107.070312 33.136719 C 107.070312 34.765625 107.09375 35.246094 107.179688 35.589844 C 107.539062 36.960938 108.675781 38.109375 110.121094 38.554688 C 110.476562 38.664062 110.785156 38.679688 112.484375 38.679688 C 114.3125 38.679688 114.464844 38.671875 114.914062 38.527344 C 116.03125 38.171875 117.003906 37.347656 117.476562 36.363281 C 117.628906 36.054688 117.777344 35.636719 117.820312 35.4375 C 117.859375 35.234375 117.894531 34.308594 117.894531 33.273438 C 117.894531 32.28125 117.929688 31.300781 117.964844 31.101562 C 118.128906 30.226562 118.75 29.429688 119.585938 29.035156 L 120.050781 28.8125 L 122.414062 28.78125 C 124.875 28.746094 125 28.730469 125.15625 28.4375 C 125.304688 28.164062 125.164062 27.617188 124.917969 27.519531 C 124.855469 27.5 123.75 27.480469 122.464844 27.484375 C 120.441406 27.484375 120.066406 27.507812 119.710938 27.609375 Z M 119.710938 27.609375 " fill-opacity="1" fill-rule="nonzero"/></svg>
